<?xml version="1.0" encoding="iso-8859-1"?>
<!-- Uploaded to: SVG Repo, www.svgrepo.com, Generator: SVG Repo Mixer Tools -->
<svg fill="#000000" height="800px" width="800px" version="1.1" id="Layer_1" xmlns="http://www.w3.org/2000/svg" xmlns:xlink="http://www.w3.org/1999/xlink" 
	 viewBox="0 0 512 512" xml:space="preserve">
<g>
	<g>
		<path d="M384.085,53.76c-9.387,0-17.067,7.68-17.067,17.067s7.68,17.067,17.067,17.067s17.067-7.68,17.067-17.067
			S393.472,53.76,384.085,53.76z"/>
	</g>
</g>
<g>
	<g>
		<path d="M375.552,0c-42.667,0-76.8,34.133-76.8,76.8c0,5.12,0.853,10.24,1.707,14.507L173.312,215.893
			c-1.707,1.707-2.56,5.12-2.56,7.68l8.533,42.667c0.853,4.267,4.267,6.827,8.533,6.827h42.667c5.12,0,8.533-3.413,8.533-8.533
			v-25.6h34.133c5.12,0,8.533-3.413,8.533-8.533v-25.6h25.6c5.12,0,8.533-3.413,8.533-8.533v-25.6h25.6
			c2.56,0,5.12-0.853,6.827-3.413c0,0,6.827-8.533,12.8-15.36c4.267,0.853,9.387,1.707,14.507,1.707c42.667,0,76.8-34.133,76.8-76.8
			C452.352,34.133,418.219,0,375.552,0z M384.085,104.96c-18.773,0-34.133-15.36-34.133-34.133s15.36-34.133,34.133-34.133
			c18.773,0,34.133,15.36,34.133,34.133S402.859,104.96,384.085,104.96z"/>
	</g>
</g>
<g>
	<g>
		<path d="M507.819,315.733c-15.36-20.48-29.867-21.333-68.267-0.853l-73.387,45.227c-6.827,3.413-17.92,5.973-30.72,6.827
			c-7.68,0.853-16.213,2.56-22.187,7.68c-2.56,0-4.267,0.853-5.973,0.853h-128c-25.6,0-25.6,12.8-25.6,17.067
			c0,5.12-3.413,8.533-8.533,8.533c-5.12,0-8.533-3.413-8.533-8.533c0-21.333,16.213-34.133,42.667-34.133h128
			c1.707,0,3.413-11.947-1.707-19.627c-13.653-19.627-36.693-31.573-61.44-31.573h-33.28c-17.92,0-35.84-5.973-48.64-15.36
			c-30.72-23.04-78.507,1.707-102.4,17.067v-18.773H0.085V512h59.733v-25.6h110.933c17.067,0,34.987-1.707,52.053-4.267
			l110.933-17.067c4.267,0,8.533-0.853,11.947-1.707c10.24-1.707,19.627-5.973,28.16-14.507l128.853-98.987
			C512.939,341.333,514.645,325.973,507.819,315.733z M42.752,320v166.4v8.533h-25.6V307.2h25.6V320z"/>
	</g>
</g>
</svg>