<?xml version="1.0" encoding="iso-8859-1"?>
<!-- Uploaded to: SVG Repo, www.svgrepo.com, Generator: SVG Repo Mixer Tools -->
<svg fill="#000000" height="800px" width="800px" version="1.1" id="Layer_1" xmlns="http://www.w3.org/2000/svg" xmlns:xlink="http://www.w3.org/1999/xlink" 
	 viewBox="0 0 290.626 290.626" xml:space="preserve">
<g>
	<g>
		<g>
			<path d="M117.188,37.501h46.875c2.587,0,4.688,2.1,4.688,4.688v4.688h9.375v-4.688c0-7.753-6.309-14.063-14.063-14.063h-46.875
				c-2.588,0-4.688-2.1-4.688-4.688s2.1-4.688,4.688-4.688h23.438c7.753,0,14.063-6.309,14.063-14.063V0.001h-9.375v4.688
				c0,2.588-2.1,4.688-4.688,4.688h-23.438c-7.753,0-14.063,6.309-14.063,14.063C103.125,31.193,109.434,37.501,117.188,37.501z"/>
			<path d="M267.188,243.751v-64.172c2.958-4.453,4.688-9.783,4.688-15.516l-14.959-70.312H225V72.657
				c0-11.63-9.464-21.094-21.094-21.094c-4.336,0-8.363,1.322-11.719,3.572v-3.572h-93.75v42.188h-64.73l-14.855,69.328
				l-0.103,0.984c0,5.733,1.73,11.063,4.688,15.516v64.172H0v46.875h89.063h4.688h9.375H187.5h9.375h4.688h89.063v-46.875H267.188z
				 M262.5,253.126h18.75v9.375H262.5V253.126z M225,105.469v-2.344h24.333l12.056,56.25h-37.012l-5.569-38.991
				C222.633,116.565,225,111.287,225,105.469z M261.863,168.751c-2.096,8.067-9.399,14.063-18.113,14.063
				s-15.989-5.995-18.084-14.063H261.863z M192.187,103.126v-9.376v-18.75v-2.344c0.001-6.464,5.255-11.718,11.719-11.718
				s11.719,5.255,11.719,11.719v32.813c0,6.464-5.255,11.719-11.719,11.719s-11.719-5.255-11.719-11.719V103.126z M186.872,117.803
				c3.839,5.283,10.022,8.761,17.034,8.761c2.161,0,4.205-0.422,6.164-1.027l4.837,33.839h-37.27l-3.712-33.431
				C179.128,124.763,183.614,121.815,186.872,117.803z M214.959,168.751c-2.095,8.067-9.37,14.063-18.084,14.063
				s-15.989-5.995-18.084-14.063H214.959z M107.812,60.938L107.812,60.938h75.001v11.719v2.343v18.75v9.375
				c0,7.753-6.309,14.063-14.063,14.063h-46.875c-7.753,0-14.063-6.309-14.063-14.063V60.938z M122.424,159.376l3.646-32.813h38.48
				l3.647,32.813H122.424z M168.084,168.751c-2.095,8.067-9.37,14.063-18.084,14.063h-9.375c-8.714,0-15.989-5.995-18.084-14.063
				H168.084z M83.757,103.126h14.681c0,11.142,7.832,20.452,18.267,22.819l-3.712,33.431h-37.27L83.757,103.126z M111.834,168.751
				c-2.095,8.067-9.37,14.063-18.084,14.063s-15.989-5.995-18.084-14.063H111.834z M41.292,103.126h32.991l-8.034,56.25H29.236
				L41.292,103.126z M64.959,168.751c-2.095,8.067-9.37,14.063-18.084,14.063s-16.017-5.995-18.113-14.063H64.959z M9.375,253.126
				h18.75v9.375H9.375V253.126z M14.063,281.25H9.375v-9.375h4.688V281.25z M42.188,281.25h-18.75v-9.375h18.75V281.25z M37.5,262.5
				v-9.375h18.75v9.375H37.5z M70.313,281.25h-18.75v-9.375h18.75V281.25z M65.625,262.5v-9.375h18.75v9.375H65.625z M84.376,281.25
				h-4.688v-9.375h4.688V281.25z M178.126,281.25H112.5v-37.5c0-18.089,14.723-32.813,32.813-32.813
				c18.09,0,32.813,14.723,32.813,32.813V281.25z M196.877,243.751v37.5H187.5v-37.5c0-23.264-18.923-42.188-42.188-42.188
				s-42.188,18.923-42.188,42.188v37.5H93.75v-37.5H32.813v-55.369c4.144,2.405,8.939,3.806,14.063,3.806
				c9.778,0,18.394-5.02,23.438-12.609c5.044,7.594,13.659,12.609,23.438,12.609s18.394-5.02,23.438-12.609
				c5.044,7.594,13.659,12.609,23.438,12.609H150c9.778,0,18.394-5.02,23.438-12.609c5.044,7.594,13.659,12.609,23.438,12.609
				c9.779,0,18.394-5.02,23.438-12.609c5.044,7.594,13.659,12.609,23.438,12.609c5.123,0,9.919-1.402,14.063-3.806v55.369H196.877z
				 M253.125,253.126v9.375h-18.75v-9.375H253.125z M225,253.126v9.375h-18.75v-9.375H225z M210.938,281.25h-4.688v-9.375h4.688
				V281.25z M239.063,281.25h-18.75v-9.375h18.75V281.25z M267.188,281.25h-18.75v-9.375h18.75V281.25z M281.251,281.25h-4.688
				v-9.375h4.688V281.25z"/>
			<path d="M37.5,239.063h60.938v-42.188H37.5V239.063z M46.875,206.251h42.188v23.438H46.875V206.251z"/>
			<path d="M192.187,239.063h60.938v-42.188h-60.938V239.063z M201.562,206.251h42.188v23.438h-42.188V206.251z"/>
		</g>
	</g>
</g>
</svg>