<?xml version="1.0" encoding="iso-8859-1"?>
<!-- Uploaded to: SVG Repo, www.svgrepo.com, Generator: SVG Repo Mixer Tools -->
<svg fill="#000000" height="800px" width="800px" version="1.1" id="Layer_1" xmlns="http://www.w3.org/2000/svg" xmlns:xlink="http://www.w3.org/1999/xlink" 
	 viewBox="0 0 503.428 503.428" xml:space="preserve">
<g>
	<g>
		<path d="M488.143,215.164L288.238,15.259c-20.345-20.345-53.455-20.345-73.8,0L15.782,213.915
			c-20.758,20.758-20.758,54.515,0,75.273L214.95,488.356c9.719,9.719,22.645,15.073,36.388,15.073s26.669-5.354,36.388-15.073
			l200.417-200.417c9.719-9.719,15.073-22.645,15.073-36.388C503.215,237.808,497.862,224.883,488.143,215.164z M413.022,274.008
			c0,17.336-14.102,31.439-31.439,31.439c-5.497,0-10.581-1.545-15.082-4.024c-4.042,12.701-15.809,21.989-29.831,21.989
			c-17.336,0-31.439-14.102-31.439-31.439v-13.474H197.443v13.474c0,17.336-14.102,31.439-31.439,31.439
			c-14.022,0-25.789-9.288-29.831-21.989c-4.5,2.479-9.584,4.024-15.082,4.024c-17.336,0-31.439-14.102-31.439-31.439v-44.912
			c0-17.336,14.102-31.439,31.439-31.439c5.497,0,10.581,1.545,15.082,4.024c4.042-12.701,15.809-21.989,29.831-21.989
			c17.336,0,31.439,14.102,31.439,31.439v13.474h107.789V211.13c0-17.336,14.102-31.439,31.439-31.439
			c14.022,0,25.789,9.288,29.831,21.989c4.5-2.479,9.584-4.024,15.082-4.024c17.336,0,31.439,14.102,31.439,31.439V274.008z"/>
	</g>
</g>
</svg>