<?xml version="1.0" encoding="iso-8859-1"?>
<!-- Uploaded to: SVG Repo, www.svgrepo.com, Generator: SVG Repo Mixer Tools -->
<svg fill="#000000" height="800px" width="800px" version="1.1" id="Layer_1" xmlns="http://www.w3.org/2000/svg" xmlns:xlink="http://www.w3.org/1999/xlink" 
	 viewBox="0 0 290.625 290.625" xml:space="preserve">
<g>
	<g>
		<path d="M271.875,271.402c10.683-2.18,18.75-11.644,18.75-22.964c0-5.995-2.255-11.611-6.295-15.914
			c1.059-2.362,1.608-4.908,1.608-7.523c0-10.341-8.409-18.75-18.75-18.75s-18.75,8.409-18.75,18.75
			c0,2.616,0.548,5.161,1.608,7.523c-4.041,4.303-6.295,9.919-6.295,15.914c0,11.316,8.067,20.784,18.75,22.964v9.848h-48.459
			l-27.891-65.742c4.195-2.044,8.25-4.313,12.07-6.933c0.581,12.408,10.777,22.35,23.33,22.35c12.923,0,23.438-10.514,23.438-23.438
			c0-12.548-9.942-22.748-22.35-23.33c7.233-10.538,12.328-22.627,14.766-35.648c4.167,3.797,9.652,6.178,15.722,6.178
			c12.923,0,23.438-10.514,23.438-23.438s-10.514-23.438-23.438-23.438c-6.07,0-11.555,2.381-15.722,6.178
			c-2.438-13.022-7.533-25.111-14.766-35.648c12.408-0.581,22.35-10.777,22.35-23.33c0-12.923-10.514-23.438-23.438-23.438
			c-12.548,0-22.744,9.942-23.33,22.35c-10.538-7.233-22.627-12.328-35.648-14.766c3.797-4.167,6.178-9.652,6.178-15.722
			C168.75,10.514,158.236,0,145.313,0c-12.923,0-23.438,10.514-23.438,23.438c0,6.07,2.381,11.555,6.178,15.722
			c-13.022,2.438-25.111,7.533-35.648,14.766c-0.581-12.408-10.777-22.35-23.33-22.35c-12.923,0-23.438,10.514-23.438,23.438
			c0,12.548,9.942,22.748,22.35,23.33c-7.233,10.537-12.328,22.627-14.766,35.648c-4.167-3.797-9.652-6.178-15.722-6.178
			c-12.923,0-23.438,10.514-23.438,23.438c0,12.924,10.514,23.438,23.438,23.438c6.07,0,11.555-2.381,15.722-6.178
			c2.438,13.022,7.533,25.111,14.766,35.648c-12.408,0.581-22.35,10.777-22.35,23.33c0,12.923,10.514,23.438,23.437,23.438
			c12.548,0,22.744-9.942,23.33-22.35c3.816,2.62,7.875,4.894,12.07,6.933l-27.89,65.739H28.125v-9.848
			c10.683-2.18,18.75-11.644,18.75-22.964c0-5.995-2.255-11.611-6.295-15.914c1.059-2.362,1.608-4.908,1.608-7.523
			c0-10.341-8.409-18.75-18.75-18.75S4.688,214.659,4.688,225c0,2.616,0.548,5.161,1.608,7.523C2.255,236.827,0,242.442,0,248.438
			c0,11.316,8.067,20.784,18.75,22.964v9.848H0v9.375h290.625v-9.375h-18.75V271.402z M253.125,145.313
			c-4.139,0-7.828-1.833-10.406-4.688h20.808C260.953,143.48,257.264,145.313,253.125,145.313z M253.125,117.188
			c7.753,0,14.063,6.309,14.063,14.063h-28.125C239.063,123.497,245.372,117.188,253.125,117.188z M37.5,145.313
			c-4.139,0-7.828-1.833-10.406-4.688h20.808C45.328,143.48,41.639,145.313,37.5,145.313z M23.438,131.251
			c0-7.754,6.309-14.063,14.062-14.063s14.063,6.309,14.063,14.063H23.438z M18.75,248.438v13.2
			c-5.442-1.941-9.375-7.097-9.375-13.2c0-4.43,2.077-8.522,5.7-11.227l3.783-2.827l-2.855-3.759
			c-1.266-1.673-1.941-3.619-1.941-5.625c0-5.17,4.205-9.375,9.375-9.375s9.375,4.205,9.375,9.375c0,2.006-0.675,3.952-1.941,5.625
			l-2.85,3.764l3.783,2.827c3.619,2.7,5.695,6.792,5.695,11.222c0,6.103-3.933,11.259-9.375,13.2v-13.2H18.75z M221.55,220.313
			c-4.139,0-7.828,0-10.406-4.688h20.808C229.378,220.313,225.689,220.313,221.55,220.313z M235.613,206.25h-28.125
			c0-4.688,6.309-14.063,14.063-14.063C229.303,192.188,235.613,201.563,235.613,206.25z M221.55,70.313
			c-4.139,0-7.828-4.688-10.406-4.688h20.808C229.378,65.625,225.689,70.313,221.55,70.313z M221.55,42.188
			c7.753,0,14.063,4.688,14.063,14.063h-28.125C207.488,46.875,213.792,42.188,221.55,42.188z M145.313,9.375
			c7.753,0,14.063,6.309,14.063,14.063H131.25C131.25,15.684,137.559,9.375,145.313,9.375z M155.714,32.813
			c-2.573,2.855-6.263,4.688-10.402,4.688s-7.828-1.834-10.406-4.688H155.714z M69.075,42.188c7.753,0,14.063,4.688,14.063,14.063
			H55.013C55.013,46.875,61.322,42.188,69.075,42.188z M58.673,65.625h20.808c-2.573,0-6.267,4.688-10.406,4.688
			S61.247,65.625,58.673,65.625z M69.075,220.313c-4.139,0-7.828,0-10.406-4.688h20.808
			C76.908,220.313,73.219,220.313,69.075,220.313z M55.013,206.251c0-4.688,6.309-14.063,14.062-14.063s14.063,9.375,14.063,14.063
			H55.013z M60.938,131.25c0-46.523,37.852-84.375,84.375-84.375s84.375,37.852,84.375,84.375c0,33.173-19.289,61.852-47.198,75.628
			l-25.805-60.825c4.458-3.431,7.378-8.761,7.378-14.803c0-10.341-8.409-18.75-18.75-18.75s-18.75,8.409-18.75,18.75
			c0,6.042,2.92,11.372,7.378,14.803l-25.805,60.825C80.227,193.102,60.938,164.423,60.938,131.25z M131.25,239.063
			c0-7.753,6.309-14.063,14.063-14.063c7.754,0,14.062,6.309,14.062,14.063H131.25z M155.719,248.438
			c-2.573,2.855-6.267,4.688-10.406,4.688c-4.139,0-7.828-1.833-10.406-4.688H155.719z M145.313,215.625
			c-10.031,0-19.617-1.852-28.547-5.077l25.805-60.825c0.9,0.131,1.805,0.277,2.742,0.277s1.842-0.145,2.742-0.277l25.805,60.825
			C164.93,213.773,155.344,215.625,145.313,215.625z M135.938,131.25c0-5.17,4.205-9.375,9.375-9.375
			c5.17,0,9.375,4.205,9.375,9.375s-4.205,9.375-9.375,9.375C140.143,140.625,135.938,136.42,135.938,131.25z M86.77,281.25
			l26.335-62.072c4.819,1.772,9.797,3.197,14.953,4.158c-3.802,4.172-6.183,9.656-6.183,15.727
			c0,12.923,10.514,23.438,23.438,23.438c12.924,0,23.438-10.514,23.438-23.438c0-6.07-2.381-11.555-6.178-15.722
			c5.152-0.966,10.13-2.386,14.953-4.158l26.33,62.067H86.77z M262.5,248.438v13.2c-5.442-1.941-9.375-7.097-9.375-13.2
			c0-4.43,2.077-8.522,5.7-11.227l3.783-2.827l-2.855-3.759c-1.266-1.673-1.941-3.619-1.941-5.625c0-5.17,4.205-9.375,9.375-9.375
			c5.17,0,9.375,4.205,9.375,9.375c0,2.006-0.675,3.952-1.941,5.625l-2.85,3.764l3.783,2.827c3.619,2.7,5.695,6.792,5.695,11.222
			c0,6.103-3.933,11.259-9.375,13.2v-13.2H262.5z"/>
	</g>
</g>
</svg>