<?xml version="1.0" encoding="iso-8859-1"?>
<!-- Uploaded to: SVG Repo, www.svgrepo.com, Generator: SVG Repo Mixer Tools -->
<svg fill="#000000" height="800px" width="800px" version="1.1" id="Layer_1" xmlns="http://www.w3.org/2000/svg" xmlns:xlink="http://www.w3.org/1999/xlink" 
	 viewBox="0 0 512 512" xml:space="preserve">
<g>
	<g>
		<path d="M499.91,422.637c-4.356,0-7.885,3.53-7.885,7.885v65.708H297.528V270.719c0-4.355-3.529-7.885-7.885-7.885H228.14V91.992
			c0-4.355-3.529-7.885-7.885-7.885h-61.503V15.77h135.097c4.356,0,7.885-3.53,7.885-7.885S298.204,0,293.848,0H12.09
			C7.735,0,4.205,3.53,4.205,7.885v496.23c0,4.355,3.529,7.885,7.885,7.885H499.91c4.356,0,7.885-3.53,7.885-7.885v-73.593
			C507.795,426.167,504.265,422.637,499.91,422.637z M73.593,496.23H19.975V278.604h53.618V496.23z M73.593,262.834H19.975V15.77
			h53.618V262.834z M142.981,496.23H89.363V200.805h53.618V496.23z M142.981,185.035H89.363V15.77h53.618V185.035z M212.37,496.23
			h-53.618V350.094h53.618V496.23z M212.37,334.324h-53.618V99.877h53.618V334.324z M281.758,496.23H228.14V278.604h53.618V496.23z"
			/>
	</g>
</g>
<g>
	<g>
		<path d="M499.91,0H335.901c-4.356,0-7.885,3.53-7.885,7.885s3.529,7.885,7.885,7.885h156.123v372.698
			c0,4.355,3.529,7.885,7.885,7.885s7.885-3.53,7.885-7.885V7.885C507.795,3.53,504.265,0,499.91,0z"/>
	</g>
</g>
<g>
	<g>
		<path d="M390.753,64.73c-0.122-0.003-0.243-0.003-0.364,0c-51.86,1.199-77.07,49.313-77.07,147.093
			c0,48.789,20.471,117.162,21.342,120.049c1.004,3.328,4.071,5.607,7.549,5.607h96.723c3.478,0,6.545-2.278,7.549-5.607
			c0.872-2.887,21.342-71.26,21.342-120.049C467.823,114.042,442.613,65.928,390.753,64.73z M432.997,321.708h-84.853
			c-4.868-17.334-19.054-71.181-19.055-109.885c0-49.082,6.501-84.822,19.325-106.226c9.966-16.634,23.365-24.613,42.157-25.096
			c18.793,0.484,32.192,8.462,42.157,25.096c12.823,21.404,19.325,57.143,19.325,106.226
			C452.053,250.497,437.865,304.37,432.997,321.708z"/>
	</g>
</g>
<g>
	<g>
		<path d="M441.035,351.146H340.107c-4.356,0-7.885,3.53-7.885,7.885v49.413c0,30.435,24.761,55.195,55.195,55.195h6.308
			c30.434,0,55.195-24.76,55.195-55.195v-49.413C448.92,354.676,445.391,351.146,441.035,351.146z M433.15,408.444
			c0,21.74-17.686,39.425-39.425,39.425h-6.308c-21.74,0-39.425-17.686-39.425-39.425v-41.528h85.158V408.444z"/>
	</g>
</g>
</svg>