<?xml version="1.0" encoding="iso-8859-1"?>
<!-- Uploaded to: SVG Repo, www.svgrepo.com, Generator: SVG Repo Mixer Tools -->
<svg fill="#000000" height="800px" width="800px" version="1.1" id="Layer_1" xmlns="http://www.w3.org/2000/svg" xmlns:xlink="http://www.w3.org/1999/xlink" 
	 viewBox="0 0 512 512" xml:space="preserve">
<g>
	<g>
		<path d="M256,0c-85.603,0-155.242,69.64-155.242,155.242c0,82.593,141.696,288.676,147.729,297.413
			c1.703,2.47,4.513,3.94,7.513,3.94c3.001,0,5.81-1.47,7.513-3.94c6.033-8.736,147.729-214.819,147.729-297.413
			C411.243,69.64,341.603,0,256,0z M256,431.166c-29.679-44.334-136.979-209.271-136.979-275.924
			c0-75.53,61.449-136.979,136.979-136.979c75.53,0,136.979,61.449,136.979,136.979C392.979,221.877,285.674,386.828,256,431.166z"
			/>
	</g>
</g>
<g>
	<g>
		<path d="M256,91.319c-35.248,0-63.923,28.676-63.923,63.923c0,35.249,28.675,63.923,63.923,63.923
			c35.248,0,63.923-28.674,63.923-63.923C319.923,119.995,291.248,91.319,256,91.319z M256,200.902
			c-25.175,0-45.66-20.484-45.66-45.66c0-25.174,20.484-45.66,45.66-45.66c25.175,0,45.66,20.486,45.66,45.66
			C301.66,180.418,281.175,200.902,256,200.902z"/>
	</g>
</g>
<g>
	<g>
		<path d="M456.661,500.164l-36.528-154.936c-0.972-4.124-4.655-6.734-8.891-6.734h-36.528c-5.043,0-9.132,4.089-9.132,9.132
			s4.089,9.132,9.132,9.132h29.295l32.229,136.979H75.761l32.229-136.979h29.295c5.043,0,9.132-4.089,9.132-9.132
			s-4.089-9.132-9.132-9.132h-36.528c-4.236,0-7.919,2.61-8.891,6.734l-36.528,155.09c-0.638,2.716,0,5.803,1.735,7.993
			c1.73,2.185,4.365,3.69,7.157,3.69h383.54c2.791,0,5.426-1.582,7.156-3.767C456.661,506.044,457.299,502.88,456.661,500.164z"/>
	</g>
</g>
</svg>